<?xml version="1.0" encoding="UTF-8" standalone="no"?>
<svg
   class="feather feather-edit-2"
   fill="none"
   height="24"
   stroke="currentColor"
   stroke-linecap="round"
   stroke-linejoin="round"
   stroke-width="2"
   viewBox="0 0 24 24"
   width="24"
   version="1.1"
   id="svg1"
   xml:space="preserve"
   xmlns="http://www.w3.org/2000/svg"
   xmlns:svg="http://www.w3.org/2000/svg"><defs
     id="defs1" /><path
     id="path1-9-2-6-77"
     style="display:inline;fill:#dddddd;fill-opacity:1;stroke:none;stroke-width:0.28026;stroke-dasharray:none;stroke-opacity:1"
     d="m 19.864359,21.693164 c 0.502201,7.75e-4 1.00295,0.0012 1,-0.0019 V 19.605273 15.50482 c 0,-0.571557 -0.44836,-1.042969 -1.001953,-1.042969 -0.553545,1e-6 -1.003906,0.469508 -1.003906,1.042969 v 2.661 l -5.810345,-5.338021 c -0.391418,-0.391416 -1.041772,-0.378152 -1.447266,0.02734 -0.407519,0.407518 -0.423397,1.060475 -0.02734,1.447266 0,0 4.832415,4.341839 5.806439,5.302864 h -2.538846 c -0.553549,0 -1.003909,0.469511 -1.003907,1.042969 -2e-6,0.576318 0.450313,1.042968 1.003907,1.042968 h 4.017362 c 0,0 0.503658,0.0012 1.005859,0.002 z" /><path
     id="path1-9-2-6-77-2"
     style="display:inline;fill:#dddddd;fill-opacity:1;stroke:none;stroke-width:0.28026;stroke-dasharray:none;stroke-opacity:1"
     d="m 0.71980571,21.143585 c -7.75e-4,0.502201 -0.0012,1.00295 0.0019,1 h 2.08599099 4.100453 c 0.5715568,0 1.0429688,-0.44836 1.0429688,-1.001953 -1e-6,-0.553545 -0.469508,-1.003906 -1.0429688,-1.003906 h -2.661 l 5.3380207,-5.810345 c 0.3914161,-0.391418 0.3781521,-1.041772 -0.02734,-1.447266 -0.407518,-0.407519 -1.0604749,-0.423397 -1.4472659,-0.02734 0,0 -4.3418388,4.832415 -5.3028638,5.806439 v -2.538846 c 0,-0.553549 -0.469511,-1.003909 -1.042969,-1.003907 -0.576318,-2e-6 -1.04296799,0.450313 -1.04296799,1.003907 v 4.017362 c 0,0 -0.0012,0.503658 -0.002,1.005859 z" /><path
     id="path1-9-2-6-77-7"
     style="display:inline;fill:#dddddd;fill-opacity:1;stroke:none;stroke-width:0.28026;stroke-dasharray:none;stroke-opacity:1"
     d="m 1.2620057,2.1847517 c -0.50220109,-7.75e-4 -1.00295009,-0.0012 -1.00000009,0.0019 v 2.0859907 4.100453 c 0,0.571557 0.44836,1.042969 1.00195309,1.042969 0.553545,-10e-7 1.003906,-0.469508 1.003906,-1.042969 v -2.661 l 5.810345,5.3380206 c 0.391418,0.391416 1.041772,0.378152 1.447266,-0.02734 0.407519,-0.407518 0.423397,-1.0604746 0.02734,-1.4472656 0,0 -4.832415,-4.341839 -5.806439,-5.302864 h 2.538846 c 0.553549,0 1.003909,-0.469511 1.003907,-1.0429687 2e-6,-0.576318 -0.450313,-1.042968 -1.003907,-1.042968 h -4.017362 c 0,0 -0.503658,-0.0012 -1.005859,-0.002 z" /><path
     id="path1-9-2-6-77-2-4"
     style="display:inline;fill:#dddddd;fill-opacity:1;stroke:none;stroke-width:0.28026;stroke-dasharray:none;stroke-opacity:1"
     d="m 20.406559,2.7343304 c 7.75e-4,-0.502201 0.0012,-1.00295 -0.0019,-1 h -2.085991 -4.100453 c -0.571556,0 -1.042968,0.44836 -1.042968,1.001953 10e-7,0.5535447 0.469508,1.0039057 1.042968,1.0039057 h 2.661 l -5.33802,5.810345 c -0.391416,0.391418 -0.378152,1.0417719 0.02734,1.4472659 0.407518,0.407519 1.060475,0.423397 1.447266,0.02734 0,0 4.341838,-4.8324149 5.302863,-5.8064389 v 2.538846 c 0,0.553549 0.469511,1.003909 1.042969,1.003907 0.576318,2e-6 1.042968,-0.450313 1.042968,-1.003907 v -4.017362 c 0,0 0.0012,-0.503658 0.002,-1.0058587 z" /></svg>
