<?xml version="1.0" encoding="UTF-8" standalone="no"?>
<svg
   class="feather feather-edit-2"
   fill="none"
   height="24"
   stroke="currentColor"
   stroke-linecap="round"
   stroke-linejoin="round"
   stroke-width="2"
   viewBox="0 0 24 24"
   width="24"
   version="1.1"
   id="svg1"
   sodipodi:docname="minimize.svg"
   inkscape:version="1.3 (0e150ed6c4, 2023-07-21)"
   xml:space="preserve"
   inkscape:export-filename="minimize.png"
   inkscape:export-xdpi="96"
   inkscape:export-ydpi="96"
   xmlns:inkscape="http://www.inkscape.org/namespaces/inkscape"
   xmlns:sodipodi="http://sodipodi.sourceforge.net/DTD/sodipodi-0.dtd"
   xmlns="http://www.w3.org/2000/svg"
   xmlns:svg="http://www.w3.org/2000/svg"><defs
     id="defs1" /><sodipodi:namedview
     id="namedview1"
     pagecolor="#ffffff"
     bordercolor="#999999"
     borderopacity="1"
     inkscape:showpageshadow="0"
     inkscape:pageopacity="0"
     inkscape:pagecheckerboard="0"
     inkscape:deskcolor="#d1d1d1"
     inkscape:zoom="33.875"
     inkscape:cx="11.276753"
     inkscape:cy="10.789668"
     inkscape:window-width="1920"
     inkscape:window-height="1009"
     inkscape:window-x="-8"
     inkscape:window-y="-8"
     inkscape:window-maximized="1"
     inkscape:current-layer="svg1" /><path
     id="path1-9-2-6-77-2-4"
     style="display:inline;fill:#dddddd;fill-opacity:1;stroke:none;stroke-width:0.28026;stroke-dasharray:none;stroke-opacity:1"
     d="m 13.175208,7.9218721 c -7.75e-4,0.502201 -0.0012,1.00295 0.0019,1 h 2.085991 4.100453 c 0.571556,0 1.042968,-0.44836 1.042968,-1.001953 -1e-6,-0.5535447 -0.469508,-1.0039057 -1.042968,-1.0039057 h -2.661 l 3.419201,-3.4192011 c 0.391416,-0.391418 0.378152,-1.041772 -0.02734,-1.447266 -0.407518,-0.407519 -1.060475,-0.423397 -1.447266,-0.02734 0,0 -2.423019,2.4412711 -3.384044,3.4152951 v -2.538846 c 0,-0.553549 -0.469511,-1.003909 -1.042969,-1.003907 -0.576318,-2e-6 -1.042968,0.450313 -1.042968,1.003907 v 4.017362 c 0,0 -0.0012,0.503658 -0.002,1.0058587 z"
     sodipodi:nodetypes="cccsssccsccsssccc" /><path
     id="path1-9-2-6-77-2-4-8"
     style="display:inline;fill:#dddddd;fill-opacity:1;stroke:none;stroke-width:0.28026;stroke-dasharray:none;stroke-opacity:1"
     d="m 14.557518,14.395083 c -0.502201,-7.75e-4 -1.00295,-0.0012 -1,0.0019 v 2.085991 4.100453 c 0,0.571556 0.44836,1.042968 1.001953,1.042968 0.553545,-10e-7 1.003906,-0.469508 1.003906,-1.042968 v -2.661 l 3.419201,3.419201 c 0.391418,0.391416 1.041772,0.378152 1.447266,-0.02734 0.407519,-0.407518 0.423397,-1.060475 0.02734,-1.447266 0,0 -2.441271,-2.423019 -3.415295,-3.384044 h 2.538846 c 0.553549,0 1.003909,-0.469511 1.003907,-1.042969 2e-6,-0.576318 -0.450313,-1.042968 -1.003907,-1.042968 h -4.017362 c 0,0 -0.503658,-0.0012 -1.005859,-0.002 z"
     sodipodi:nodetypes="cccsssccsccsssccc" /><path
     id="path1-9-2-6-77-2-4-4"
     style="display:inline;fill:#dddddd;fill-opacity:1;stroke:none;stroke-width:0.28026;stroke-dasharray:none;stroke-opacity:1"
     d="m 6.5531784,9.5895328 c 0.502201,7.75e-4 1.00295,0.0012 1,-0.0019 v -2.085991 -4.100453 c 0,-0.571556 -0.44836,-1.042968 -1.001953,-1.042968 -0.553545,1e-6 -1.003906,0.469508 -1.003906,1.042968 v 2.661 l -3.419201,-3.419201 c -0.391418,-0.391416 -1.041772,-0.378152 -1.44726597,0.02734 -0.407519,0.407518 -0.423397,1.060475 -0.02734,1.447266 0,0 2.44127097,2.423019 3.41529497,3.384044 h -2.538846 c -0.55354897,0 -1.00390897,0.469511 -1.00390697,1.042969 -2e-6,0.576318 0.450313,1.042968 1.00390697,1.042968 h 4.017362 c 0,0 0.503658,0.0012 1.005859,0.002 z"
     sodipodi:nodetypes="cccsssccsccsssccc" /><path
     id="path1-9-2-6-77-2-4-0"
     style="display:inline;fill:#dddddd;fill-opacity:1;stroke:none;stroke-width:0.28026;stroke-dasharray:none;stroke-opacity:1"
     d="m 8.0141978,15.819201 c 7.75e-4,-0.502201 0.0012,-1.00295 -0.0019,-1 H 5.9263064 1.8258534 c -0.571556,0 -1.04296798,0.44836 -1.04296798,1.001953 10e-7,0.553545 0.46950798,1.003906 1.04296798,1.003906 h 2.661 l -3.419201,3.419201 c -0.39141598,0.391418 -0.37815198,1.041772 0.02734,1.447266 0.407518,0.407519 1.060475,0.423397 1.447266,0.02734 0,0 2.423019,-2.441271 3.384044,-3.415295 v 2.538846 c 0,0.553549 0.469511,1.003909 1.0429694,1.003907 0.576318,2e-6 1.042968,-0.450313 1.042968,-1.003907 v -4.017362 c 0,0 0.0012,-0.503658 0.002,-1.005859 z"
     sodipodi:nodetypes="cccsssccsccsssccc" /></svg>
